<?xml version="1.0" encoding="UTF-8" standalone="no"?>
<!DOCTYPE svg PUBLIC "-//W3C//DTD SVG 1.1//EN"
 "http://www.w3.org/Graphics/SVG/1.1/DTD/svg11.dtd">
<!-- Generated by graphviz version 2.38.0 (20140413.2041)
 -->
<!-- Title: G Pages: 1 -->
<svg width="576pt" height="260pt"
 viewBox="0.00 0.00 576.14 260.00" xmlns="http://www.w3.org/2000/svg" xmlns:xlink="http://www.w3.org/1999/xlink">
<g id="graph0" class="graph" transform="scale(1 1) rotate(0) translate(4 256)">
<title>G</title>
<polygon fill="white" stroke="none" points="-4,4 -4,-256 572.141,-256 572.141,4 -4,4"/>
<!-- git -->
<g id="node1" class="node"><title>git</title>
<ellipse fill="none" stroke="black" cx="137.397" cy="-234" rx="27" ry="18"/>
<text text-anchor="middle" x="137.397" y="-230.3" font-family="Times,serif" font-size="14.00">git</text>
</g>
<!-- ... -->
<g id="node2" class="node"><title>...</title>
<ellipse fill="none" stroke="black" cx="41.3968" cy="-162" rx="27" ry="18"/>
<text text-anchor="middle" x="41.3968" y="-158.3" font-family="Times,serif" font-size="14.00">...</text>
</g>
<!-- git&#45;&gt;... -->
<g id="edge1" class="edge"><title>git&#45;&gt;...</title>
<path fill="none" stroke="black" d="M119.789,-220.161C105.039,-209.405 83.7835,-193.907 67.126,-181.761"/>
<polygon fill="black" stroke="black" points="69.0352,-178.821 58.893,-175.758 64.911,-184.477 69.0352,-178.821"/>
</g>
<!--  &#45; (minus) -->
<g id="node4" class="node"><title> &#45; (minus)</title>
<ellipse fill="none" stroke="black" cx="137.397" cy="-162" rx="46.2923" ry="18"/>
<text text-anchor="middle" x="137.397" y="-158.3" font-family="Times,serif" font-size="14.00"> &#45; (minus)</text>
</g>
<!-- git&#45;&gt; &#45; (minus) -->
<g id="edge3" class="edge"><title>git&#45;&gt; &#45; (minus)</title>
<path fill="none" stroke="black" d="M137.397,-215.697C137.397,-207.983 137.397,-198.712 137.397,-190.112"/>
<polygon fill="black" stroke="black" points="140.897,-190.104 137.397,-180.104 133.897,-190.104 140.897,-190.104"/>
</g>
<!-- diff -->
<g id="node6" class="node"><title>diff</title>
<ellipse fill="none" stroke="black" cx="324.397" cy="-162" rx="27" ry="18"/>
<text text-anchor="middle" x="324.397" y="-158.3" font-family="Times,serif" font-size="14.00">diff</text>
</g>
<!-- git&#45;&gt;diff -->
<g id="edge5" class="edge"><title>git&#45;&gt;diff</title>
<path fill="none" stroke="black" d="M160.327,-224.417C193.273,-212.084 254.167,-189.289 291.788,-175.207"/>
<polygon fill="black" stroke="black" points="293.141,-178.437 301.279,-171.654 290.687,-171.882 293.141,-178.437"/>
</g>
<!-- options -->
<g id="node3" class="node"><title>options</title>
<ellipse fill="none" stroke="black" cx="36.3968" cy="-90" rx="36.2938" ry="18"/>
<text text-anchor="middle" x="36.3968" y="-86.3" font-family="Times,serif" font-size="14.00">options</text>
</g>
<!-- ...&#45;&gt;options -->
<g id="edge2" class="edge"><title>...&#45;&gt;options</title>
<path fill="none" stroke="black" d="M40.1608,-143.697C39.6098,-135.983 38.9477,-126.712 38.3334,-118.112"/>
<polygon fill="black" stroke="black" points="41.8222,-117.83 37.6185,-108.104 34.84,-118.328 41.8222,-117.83"/>
</g>
<!-- option list -->
<g id="node5" class="node"><title>option list</title>
<ellipse fill="none" stroke="black" cx="137.397" cy="-90" rx="46.2923" ry="18"/>
<text text-anchor="middle" x="137.397" y="-86.3" font-family="Times,serif" font-size="14.00">option list</text>
</g>
<!--  &#45; (minus)&#45;&gt;option list -->
<g id="edge4" class="edge"><title> &#45; (minus)&#45;&gt;option list</title>
<path fill="none" stroke="black" d="M137.397,-143.697C137.397,-135.983 137.397,-126.712 137.397,-118.112"/>
<polygon fill="black" stroke="black" points="140.897,-118.104 137.397,-108.104 133.897,-118.104 140.897,-118.104"/>
</g>
<!-- commit [tag] -->
<g id="node7" class="node"><title>commit [tag]</title>
<ellipse fill="none" stroke="black" cx="259.397" cy="-90" rx="57.6901" ry="18"/>
<text text-anchor="middle" x="259.397" y="-86.3" font-family="Times,serif" font-size="14.00">commit [tag]</text>
</g>
<!-- diff&#45;&gt;commit [tag] -->
<g id="edge6" class="edge"><title>diff&#45;&gt;commit [tag]</title>
<path fill="none" stroke="black" d="M310.612,-146.155C302.297,-137.2 291.503,-125.576 281.969,-115.309"/>
<polygon fill="black" stroke="black" points="284.356,-112.735 274.987,-107.789 279.226,-117.499 284.356,-112.735"/>
</g>
<!-- remote [tag] -->
<g id="node8" class="node"><title>remote [tag]</title>
<ellipse fill="none" stroke="black" cx="389.397" cy="-90" rx="54.6905" ry="18"/>
<text text-anchor="middle" x="389.397" y="-86.3" font-family="Times,serif" font-size="14.00">remote [tag]</text>
</g>
<!-- diff&#45;&gt;remote [tag] -->
<g id="edge7" class="edge"><title>diff&#45;&gt;remote [tag]</title>
<path fill="none" stroke="black" d="M338.182,-146.155C346.497,-137.2 357.291,-125.576 366.824,-115.309"/>
<polygon fill="black" stroke="black" points="369.567,-117.499 373.807,-107.789 364.438,-112.735 369.567,-117.499"/>
</g>
<!-- &#45; (minus) -->
<g id="node9" class="node"><title>&#45; (minus)</title>
<ellipse fill="none" stroke="black" cx="506.397" cy="-90" rx="44.393" ry="18"/>
<text text-anchor="middle" x="506.397" y="-86.3" font-family="Times,serif" font-size="14.00">&#45; (minus)</text>
</g>
<!-- diff&#45;&gt;&#45; (minus) -->
<g id="edge8" class="edge"><title>diff&#45;&gt;&#45; (minus)</title>
<path fill="none" stroke="black" d="M347.447,-152.134C377.213,-140.686 429.514,-120.57 465.961,-106.552"/>
<polygon fill="black" stroke="black" points="467.248,-109.807 475.325,-102.951 464.735,-103.274 467.248,-109.807"/>
</g>
<!-- diff option list -->
<g id="node10" class="node"><title>diff option list</title>
<ellipse fill="none" stroke="black" cx="506.397" cy="-18" rx="61.99" ry="18"/>
<text text-anchor="middle" x="506.397" y="-14.3" font-family="Times,serif" font-size="14.00">diff option list</text>
</g>
<!-- &#45; (minus)&#45;&gt;diff option list -->
<g id="edge9" class="edge"><title>&#45; (minus)&#45;&gt;diff option list</title>
<path fill="none" stroke="black" d="M506.397,-71.6966C506.397,-63.9827 506.397,-54.7125 506.397,-46.1124"/>
<polygon fill="black" stroke="black" points="509.897,-46.1043 506.397,-36.1043 502.897,-46.1044 509.897,-46.1043"/>
</g>
</g>
</svg>
