<?xml version="1.0" encoding="UTF-8" standalone="no"?>
<!DOCTYPE svg PUBLIC "-//W3C//DTD SVG 1.1//EN"
 "http://www.w3.org/Graphics/SVG/1.1/DTD/svg11.dtd">
<!-- Generated by graphviz version 2.38.0 (20140413.2041)
 -->
<!-- Title: G Pages: 1 -->
<svg width="463pt" height="260pt"
 viewBox="0.00 0.00 462.50 260.00" xmlns="http://www.w3.org/2000/svg" xmlns:xlink="http://www.w3.org/1999/xlink">
<g id="graph0" class="graph" transform="scale(1 1) rotate(0) translate(4 256)">
<title>G</title>
<polygon fill="#fdf6e3" stroke="none" points="-4,4 -4,-256 458.5,-256 458.5,4 -4,4"/>
<!-- git -->
<g id="node1" class="node"><title>git</title>
<polygon fill="none" stroke="#93a1a1" stroke-width="2" points="137,-252 83,-252 83,-216 137,-216 137,-252"/>
<text text-anchor="middle" x="110" y="-230.3" font-family="Times,serif" font-size="14.00" fill="#93a1a1">git</text>
</g>
<!-- ... -->
<g id="node2" class="node"><title>...</title>
<polygon fill="none" stroke="#93a1a1" stroke-width="2" points="56,-180 2,-180 2,-144 56,-144 56,-180"/>
<text text-anchor="middle" x="29" y="-158.3" font-family="Times,serif" font-size="14.00" fill="#93a1a1">...</text>
</g>
<!-- git&#45;&gt;... -->
<g id="edge1" class="edge"><title>git&#45;&gt;...</title>
<path fill="none" stroke="gray" stroke-width="2" d="M89.9775,-215.697C77.4221,-204.846 61.3036,-190.917 48.7922,-180.104"/>
</g>
<!--  &#45; (minus) -->
<g id="node4" class="node"><title> &#45; (minus)</title>
<polygon fill="none" stroke="#93a1a1" stroke-width="2" points="145.5,-180 74.5,-180 74.5,-144 145.5,-144 145.5,-180"/>
<text text-anchor="middle" x="110" y="-158.3" font-family="Times,serif" font-size="14.00" fill="#93a1a1"> &#45; (minus)</text>
</g>
<!-- git&#45;&gt; &#45; (minus) -->
<g id="edge3" class="edge"><title>git&#45;&gt; &#45; (minus)</title>
<path fill="none" stroke="gray" stroke-width="2" d="M110,-215.697C110,-204.846 110,-190.917 110,-180.104"/>
</g>
<!-- diff -->
<g id="node6" class="node"><title>diff</title>
<polygon fill="none" stroke="#93a1a1" stroke-width="2" points="287,-180 233,-180 233,-144 287,-144 287,-180"/>
<text text-anchor="middle" x="260" y="-158.3" font-family="Times,serif" font-size="14.00" fill="#93a1a1">diff</text>
</g>
<!-- git&#45;&gt;diff -->
<g id="edge5" class="edge"><title>git&#45;&gt;diff</title>
<path fill="none" stroke="gray" stroke-width="2" d="M137.164,-220.324C164.264,-207.677 205.667,-188.356 232.785,-175.7"/>
</g>
<!-- options -->
<g id="node3" class="node"><title>options</title>
<polygon fill="none" stroke="#93a1a1" stroke-width="2" points="56,-108 -3.55271e-15,-108 -3.55271e-15,-72 56,-72 56,-108"/>
<text text-anchor="middle" x="28" y="-86.3" font-family="Times,serif" font-size="14.00" fill="#93a1a1">options</text>
</g>
<!-- ...&#45;&gt;options -->
<g id="edge2" class="edge"><title>...&#45;&gt;options</title>
<path fill="none" stroke="gray" stroke-width="2" d="M28.7528,-143.697C28.5978,-132.846 28.3988,-118.917 28.2443,-108.104"/>
</g>
<!-- option list -->
<g id="node5" class="node"><title>option list</title>
<polygon fill="none" stroke="#93a1a1" stroke-width="2" points="145.5,-108 74.5,-108 74.5,-72 145.5,-72 145.5,-108"/>
<text text-anchor="middle" x="110" y="-86.3" font-family="Times,serif" font-size="14.00" fill="#93a1a1">option list</text>
</g>
<!--  &#45; (minus)&#45;&gt;option list -->
<g id="edge4" class="edge"><title> &#45; (minus)&#45;&gt;option list</title>
<path fill="none" stroke="gray" stroke-width="2" d="M110,-143.697C110,-132.846 110,-118.917 110,-108.104"/>
</g>
<!-- commit [tag] -->
<g id="node7" class="node"><title>commit [tag]</title>
<polygon fill="none" stroke="#93a1a1" stroke-width="2" points="252.5,-108 163.5,-108 163.5,-72 252.5,-72 252.5,-108"/>
<text text-anchor="middle" x="208" y="-86.3" font-family="Times,serif" font-size="14.00" fill="#93a1a1">commit [tag]</text>
</g>
<!-- diff&#45;&gt;commit [tag] -->
<g id="edge6" class="edge"><title>diff&#45;&gt;commit [tag]</title>
<path fill="none" stroke="gray" stroke-width="2" d="M247.146,-143.697C239.086,-132.846 228.738,-118.917 220.706,-108.104"/>
</g>
<!-- remote [tag] -->
<g id="node8" class="node"><title>remote [tag]</title>
<polygon fill="none" stroke="#93a1a1" stroke-width="2" points="355,-108 271,-108 271,-72 355,-72 355,-108"/>
<text text-anchor="middle" x="313" y="-86.3" font-family="Times,serif" font-size="14.00" fill="#93a1a1">remote [tag]</text>
</g>
<!-- diff&#45;&gt;remote [tag] -->
<g id="edge7" class="edge"><title>diff&#45;&gt;remote [tag]</title>
<path fill="none" stroke="gray" stroke-width="2" d="M273.101,-143.697C281.316,-132.846 291.863,-118.917 300.05,-108.104"/>
</g>
<!-- &#45; (minus) -->
<g id="node9" class="node"><title>&#45; (minus)</title>
<polygon fill="none" stroke="#93a1a1" stroke-width="2" points="441,-108 373,-108 373,-72 441,-72 441,-108"/>
<text text-anchor="middle" x="407" y="-86.3" font-family="Times,serif" font-size="14.00" fill="#93a1a1">&#45; (minus)</text>
</g>
<!-- diff&#45;&gt;&#45; (minus) -->
<g id="edge8" class="edge"><title>diff&#45;&gt;&#45; (minus)</title>
<path fill="none" stroke="gray" stroke-width="2" d="M287.305,-147.998C311.467,-136.492 346.829,-119.653 372.854,-107.26"/>
</g>
<!-- diff option list -->
<g id="node10" class="node"><title>diff option list</title>
<polygon fill="none" stroke="#93a1a1" stroke-width="2" points="454.5,-36 359.5,-36 359.5,-0 454.5,-0 454.5,-36"/>
<text text-anchor="middle" x="407" y="-14.3" font-family="Times,serif" font-size="14.00" fill="#93a1a1">diff option list</text>
</g>
<!-- &#45; (minus)&#45;&gt;diff option list -->
<g id="edge9" class="edge"><title>&#45; (minus)&#45;&gt;diff option list</title>
<path fill="none" stroke="gray" stroke-width="2" d="M407,-71.6966C407,-60.8463 407,-46.9167 407,-36.1043"/>
</g>
</g>
</svg>
