<?xml version="1.0" encoding="UTF-8" standalone="no"?>
<!DOCTYPE svg PUBLIC "-//W3C//DTD SVG 1.1//EN"
 "http://www.w3.org/Graphics/SVG/1.1/DTD/svg11.dtd">
<!-- Generated by graphviz version 2.38.0 (20140413.2041)
 -->
<!-- Title: G Pages: 1 -->
<svg width="463pt" height="260pt"
 viewBox="0.00 0.00 462.50 260.00" xmlns="http://www.w3.org/2000/svg" xmlns:xlink="http://www.w3.org/1999/xlink">
<g id="graph0" class="graph" transform="scale(1 1) rotate(0) translate(4 256)">
<title>G</title>
<polygon fill="#002b36" stroke="none" points="-4,4 -4,-256 458.5,-256 458.5,4 -4,4"/>
<!-- git -->
<g id="node1" class="node"><title>git</title>
<polygon fill="none" stroke="white" points="137,-252 83,-252 83,-216 137,-216 137,-252"/>
<text text-anchor="middle" x="110" y="-230.3" font-family="Times,serif" font-size="14.00" fill="white">git</text>
</g>
<!-- ... -->
<g id="node2" class="node"><title>...</title>
<polygon fill="none" stroke="white" points="56,-180 2,-180 2,-144 56,-144 56,-180"/>
<text text-anchor="middle" x="29" y="-158.3" font-family="Times,serif" font-size="14.00" fill="white">...</text>
</g>
<!-- git&#45;&gt;... -->
<g id="edge1" class="edge"><title>git&#45;&gt;...</title>
<path fill="none" stroke="white" d="M89.9775,-215.697C79.8744,-206.965 67.464,-196.24 56.4825,-186.75"/>
<polygon fill="white" stroke="white" points="58.6468,-183.995 48.7922,-180.104 54.0698,-189.291 58.6468,-183.995"/>
</g>
<!--  &#45; (minus) -->
<g id="node4" class="node"><title> &#45; (minus)</title>
<polygon fill="none" stroke="white" points="145.5,-180 74.5,-180 74.5,-144 145.5,-144 145.5,-180"/>
<text text-anchor="middle" x="110" y="-158.3" font-family="Times,serif" font-size="14.00" fill="white"> &#45; (minus)</text>
</g>
<!-- git&#45;&gt; &#45; (minus) -->
<g id="edge3" class="edge"><title>git&#45;&gt; &#45; (minus)</title>
<path fill="none" stroke="white" d="M110,-215.697C110,-207.983 110,-198.712 110,-190.112"/>
<polygon fill="white" stroke="white" points="113.5,-190.104 110,-180.104 106.5,-190.104 113.5,-190.104"/>
</g>
<!-- diff -->
<g id="node6" class="node"><title>diff</title>
<polygon fill="none" stroke="white" points="287,-180 233,-180 233,-144 287,-144 287,-180"/>
<text text-anchor="middle" x="260" y="-158.3" font-family="Times,serif" font-size="14.00" fill="white">diff</text>
</g>
<!-- git&#45;&gt;diff -->
<g id="edge5" class="edge"><title>git&#45;&gt;diff</title>
<path fill="none" stroke="white" d="M137.164,-220.324C161.3,-209.06 196.781,-192.502 223.412,-180.075"/>
<polygon fill="white" stroke="white" points="225.203,-183.101 232.785,-175.7 222.243,-176.758 225.203,-183.101"/>
</g>
<!-- options -->
<g id="node3" class="node"><title>options</title>
<polygon fill="none" stroke="white" points="56,-108 -3.55271e-15,-108 -3.55271e-15,-72 56,-72 56,-108"/>
<text text-anchor="middle" x="28" y="-86.3" font-family="Times,serif" font-size="14.00" fill="white">options</text>
</g>
<!-- ...&#45;&gt;options -->
<g id="edge2" class="edge"><title>...&#45;&gt;options</title>
<path fill="none" stroke="white" d="M28.7528,-143.697C28.6426,-135.983 28.5102,-126.712 28.3873,-118.112"/>
<polygon fill="white" stroke="white" points="31.8869,-118.053 28.2443,-108.104 24.8876,-118.153 31.8869,-118.053"/>
</g>
<!-- option list -->
<g id="node5" class="node"><title>option list</title>
<polygon fill="none" stroke="white" points="145.5,-108 74.5,-108 74.5,-72 145.5,-72 145.5,-108"/>
<text text-anchor="middle" x="110" y="-86.3" font-family="Times,serif" font-size="14.00" fill="white">option list</text>
</g>
<!--  &#45; (minus)&#45;&gt;option list -->
<g id="edge4" class="edge"><title> &#45; (minus)&#45;&gt;option list</title>
<path fill="none" stroke="white" d="M110,-143.697C110,-135.983 110,-126.712 110,-118.112"/>
<polygon fill="white" stroke="white" points="113.5,-118.104 110,-108.104 106.5,-118.104 113.5,-118.104"/>
</g>
<!-- commit [tag] -->
<g id="node7" class="node"><title>commit [tag]</title>
<polygon fill="none" stroke="white" points="252.5,-108 163.5,-108 163.5,-72 252.5,-72 252.5,-108"/>
<text text-anchor="middle" x="208" y="-86.3" font-family="Times,serif" font-size="14.00" fill="white">commit [tag]</text>
</g>
<!-- diff&#45;&gt;commit [tag] -->
<g id="edge6" class="edge"><title>diff&#45;&gt;commit [tag]</title>
<path fill="none" stroke="white" d="M247.146,-143.697C240.975,-135.389 233.463,-125.277 226.676,-116.141"/>
<polygon fill="white" stroke="white" points="229.479,-114.045 220.706,-108.104 223.86,-118.219 229.479,-114.045"/>
</g>
<!-- remote [tag] -->
<g id="node8" class="node"><title>remote [tag]</title>
<polygon fill="none" stroke="white" points="355,-108 271,-108 271,-72 355,-72 355,-108"/>
<text text-anchor="middle" x="313" y="-86.3" font-family="Times,serif" font-size="14.00" fill="white">remote [tag]</text>
</g>
<!-- diff&#45;&gt;remote [tag] -->
<g id="edge7" class="edge"><title>diff&#45;&gt;remote [tag]</title>
<path fill="none" stroke="white" d="M273.101,-143.697C279.391,-135.389 287.047,-125.277 293.965,-116.141"/>
<polygon fill="white" stroke="white" points="296.804,-118.19 300.05,-108.104 291.223,-113.964 296.804,-118.19"/>
</g>
<!-- &#45; (minus) -->
<g id="node9" class="node"><title>&#45; (minus)</title>
<polygon fill="none" stroke="white" points="441,-108 373,-108 373,-72 441,-72 441,-108"/>
<text text-anchor="middle" x="407" y="-86.3" font-family="Times,serif" font-size="14.00" fill="white">&#45; (minus)</text>
</g>
<!-- diff&#45;&gt;&#45; (minus) -->
<g id="edge8" class="edge"><title>diff&#45;&gt;&#45; (minus)</title>
<path fill="none" stroke="white" d="M287.305,-147.998C308.73,-137.795 338.961,-123.4 363.68,-111.628"/>
<polygon fill="white" stroke="white" points="365.331,-114.719 372.854,-107.26 362.321,-108.399 365.331,-114.719"/>
</g>
<!-- diff option list -->
<g id="node10" class="node"><title>diff option list</title>
<polygon fill="none" stroke="white" points="454.5,-36 359.5,-36 359.5,-0 454.5,-0 454.5,-36"/>
<text text-anchor="middle" x="407" y="-14.3" font-family="Times,serif" font-size="14.00" fill="white">diff option list</text>
</g>
<!-- &#45; (minus)&#45;&gt;diff option list -->
<g id="edge9" class="edge"><title>&#45; (minus)&#45;&gt;diff option list</title>
<path fill="none" stroke="white" d="M407,-71.6966C407,-63.9827 407,-54.7125 407,-46.1124"/>
<polygon fill="white" stroke="white" points="410.5,-46.1043 407,-36.1043 403.5,-46.1044 410.5,-46.1043"/>
</g>
</g>
</svg>
